<?xml version="1.0" encoding="UTF-8" standalone="no"?>
<!-- Created with Inkscape (http://www.inkscape.org/) -->

<svg
   xmlns:dc="http://purl.org/dc/elements/1.1/"
   xmlns:cc="http://creativecommons.org/ns#"
   xmlns:rdf="http://www.w3.org/1999/02/22-rdf-syntax-ns#"
   xmlns:svg="http://www.w3.org/2000/svg"
   xmlns="http://www.w3.org/2000/svg"
   xmlns:inkscape="http://www.inkscape.org/namespaces/inkscape"
   version="1.1"
   width="898.46753"
   height="879.98248"
   id="svg2"
   xml:space="preserve"><metadata
     id="metadata8"><rdf:RDF><cc:Work
         rdf:about=""><dc:format>image/svg+xml</dc:format><dc:type
           rdf:resource="http://purl.org/dc/dcmitype/StillImage" /></cc:Work></rdf:RDF></metadata><defs
     id="defs6"><clipPath
       id="clipPath16"><path
         d="m 0,703.986 718.774,0 L 718.774,0 0,0 0,703.986 z"
         inkscape:connector-curvature="0"
         id="path18" /></clipPath></defs><g
     transform="matrix(1.25,0,0,-1.25,0,879.9825)"
     id="g10"><g
       id="g12"><g
         clip-path="url(#clipPath16)"
         id="g14"><g
           transform="translate(565.8633,346.8052)"
           id="g20"><path
             d="m 0,0 -77.479,0 c -7.499,0 -13.57,-6.065 -13.57,-13.58 l 0,-133.719 c 0,-7.506 -6.08,-13.573 -13.57,-13.573 l -217.137,0 c -7.496,0 -13.561,6.067 -13.561,13.573 l 0,133.719 c 0,7.515 -6.072,13.58 -13.561,13.58 l -71.208,0 c -7.504,0 -9.38,4.4 -4.219,9.838 l 204.902,215.609 c 5.18,5.438 13.536,5.438 18.698,0 L 4.219,9.838 C 9.38,4.4 7.5,0 0,0 m -210.047,315.839 c -171,0 -309.626,-138.626 -309.626,-309.629 0,-171.005 138.626,-309.623 309.626,-309.623 170.999,0 309.624,138.618 309.624,309.623 0,171.003 -138.625,309.629 -309.624,309.629"
             inkscape:connector-curvature="0"
             id="path22"
             style="fill:#0092dd;fill-opacity:1;fill-rule:nonzero;stroke:none" /></g></g></g></g></svg>