<svg id="Capa_1" data-name="Capa 1" xmlns="http://www.w3.org/2000/svg" viewBox="0 0 587.33 205.33"><defs><style>.cls-1{fill:#231f20;}.cls-2{fill:#fff;}</style></defs><rect class="cls-1" width="587.33" height="205.33"/><path class="cls-2" d="M481.27,28.15A68.37,68.37,0,0,0,430.15,51V33.15a2,2,0,0,0-2.3-2H397.36a2,2,0,0,0-2,2V78.73a2,2,0,0,1-2,2H362.51a2,2,0,0,1-2-2V33.16a2,2,0,0,0-2-2H327.63a2,2,0,0,0-2,2V59q-8.07-11.83-17.08-18.51C297.2,32.16,283.09,28.09,266,28.09c-19.49,0-36.19,6.49-50.1,19.3q-14.64,13.5-19.33,31.22a2.76,2.76,0,0,1-2.53,2H156.94a2,2,0,0,1-2-2V63.63a2,2,0,0,1,2-2h42a2,2,0,0,0,2-2l-.08-26.39a2.09,2.09,0,0,0-2-2.09H33.15a2,2,0,0,0-2,2V59.55a2,2,0,0,0,2,2h26.6a2,2,0,0,1,2,2v96.75a2,2,0,0,0,2,2H94.44a2,2,0,0,0,2-2V63.63a2,2,0,0,1,2-2h20.19a2,2,0,0,1,2,2v96.83a2,2,0,0,0,2,2h76.08a2,2,0,0,0,2-2V133.73a2,2,0,0,0-2-2H156.94a2,2,0,0,1-2-2v-17a2,2,0,0,1,2-2h36.8a2.64,2.64,0,0,1,2.46,2,65,65,0,0,0,19,33.26q20.59,19.49,50.65,19.48c16.89,0,30.8-3.89,41.93-11.87q9.53-7,17.83-19.4v26.28a2,2,0,0,0,2,2h30.81a2,2,0,0,0,2-2V114.72a2,2,0,0,1,2-2h30.78a2,2,0,0,1,2,2v45.66a2,2,0,0,0,2,2h31.25a1.35,1.35,0,0,0,1.54-1.37V142.42A68.57,68.57,0,1,0,481.27,28.15ZM325.6,118.8l-30,.22a4.89,4.89,0,0,0-3.28,1.63c-6.44,7.86-15.5,12-26.64,12A34.67,34.67,0,0,1,240.24,122c-6.87-6.87-10.21-15.4-10.21-25.61a33.07,33.07,0,0,1,10.39-24.67,35.36,35.36,0,0,1,25.23-10,34.79,34.79,0,0,1,27.47,12.71A5,5,0,0,0,296.45,76H325.6ZM529.82,97H512.66a3,3,0,0,0-3,3v29.61a3,3,0,0,1-3,3H458.57a3,3,0,0,1-3-3V100a3,3,0,0,0-3-3H436.79c-1.65,0-2.07-1-.93-2.18L481.24,47.1a2.8,2.8,0,0,1,4.13,0l45.39,47.74C531.9,96.05,531.48,97,529.82,97Z" transform="translate(3.44 4.43)"/></svg>